<?xml version="1.0" encoding="UTF-8"?>
<!DOCTYPE svg PUBLIC "-//W3C//DTD SVG 1.1//EN" "http://www.w3.org/Graphics/SVG/1.1/DTD/svg11.dtd">
<!-- Creator: CorelDRAW 2021 (64-Bit) -->
<svg xmlns="http://www.w3.org/2000/svg" xml:space="preserve" width="105mm" height="148mm" version="1.1" style="shape-rendering:geometricPrecision; text-rendering:geometricPrecision; image-rendering:optimizeQuality; fill-rule:evenodd; clip-rule:evenodd"
viewBox="0 0 10500 14800"
 xmlns:xlink="http://www.w3.org/1999/xlink"
 xmlns:xodm="http://www.corel.com/coreldraw/odm/2003">
 <defs>
  <style type="text/css">
   <![CDATA[
    .fil0 {fill:black;fill-rule:nonzero}
   ]]>
  </style>
 </defs>
 <g id="Layer_x0020_1">
  <metadata id="CorelCorpID_0Corel-Layer"/>
  <g>
   <path class="fil0" d="M3584.92 5553.69c-173.94,-125.72 -212.91,-368.49 -87.04,-542.22 125.87,-173.73 368.94,-212.66 542.88,-86.94l-455.84 629.16zm2941.32 2125.9l-2941.32 -2125.9 455.84 -629.16 2941.32 2125.9 4.36 625.96 -460.2 3.2zm455.84 -629.16c173.94,125.72 212.91,368.49 87.04,542.22 -125.87,173.73 -368.94,212.66 -542.88,86.94l455.84 -629.16zm-3420.84 2206.45l2960.64 -2203.25 464.56 622.76 -2960.64 2203.25 -464.56 -622.76zm464.56 622.76c-172.17,128.13 -415.75,92.59 -544.03,-79.38 -128.28,-171.97 -92.7,-415.25 79.47,-543.38l464.56 622.76z"/>
  </g>
 </g>
</svg>
